<?xml version="1.0" standalone="no"?>
<!DOCTYPE svg PUBLIC "-//W3C//DTD SVG 20010904//EN"
 "http://www.w3.org/TR/2001/REC-SVG-20010904/DTD/svg10.dtd">
<svg version="1.0" xmlns="http://www.w3.org/2000/svg"
 width="60.000000pt" height="60.000000pt" viewBox="0 0 60.000000 60.000000"
 preserveAspectRatio="xMidYMid meet">
<metadata>
Created by potrace 1.15, written by Peter Selinger 2001-2017
</metadata>
<g transform="translate(0.000000,60.000000) scale(0.100000,-0.100000)"
fill="#000000" stroke="none">
<path d="M197 342 c-94 -94 -97 -98 -82 -120 9 -12 25 -27 37 -33 18 -10 28
-4 84 52 l64 63 64 -63 c56 -56 66 -62 84 -52 12 6 28 21 37 33 15 22 12 26
-82 120 -54 54 -100 98 -103 98 -3 0 -49 -44 -103 -98z m198 -2 c85 -86 88
-90 75 -114 -23 -45 -40 -41 -107 26 l-63 62 -63 -62 c-67 -67 -84 -71 -107
-26 -13 24 -10 28 75 114 49 50 92 90 95 90 3 0 46 -40 95 -90z"/>
<path d="M213 329 c-46 -45 -83 -85 -83 -89 0 -4 8 -14 19 -24 17 -16 21 -13
85 51 l66 68 66 -68 c64 -64 68 -67 85 -51 11 10 19 20 19 24 0 8 -156 163
-168 167 -4 2 -44 -34 -89 -78z"/>
</g>
</svg>
