<?xml version="1.0" standalone="no"?>
<!DOCTYPE svg PUBLIC "-//W3C//DTD SVG 20010904//EN"
 "http://www.w3.org/TR/2001/REC-SVG-20010904/DTD/svg10.dtd">
<svg version="1.0" xmlns="http://www.w3.org/2000/svg"
 width="60.000000pt" height="60.000000pt" viewBox="0 0 60.000000 60.000000"
 preserveAspectRatio="xMidYMid meet">
<metadata>
Created by potrace 1.15, written by Peter Selinger 2001-2017
</metadata>
<g transform="translate(0.000000,60.000000) scale(0.100000,-0.100000)"
fill="#000000" stroke="none">
<path d="M128 389 l-31 -31 101 -101 102 -102 99 99 c108 107 111 116 55 153
-25 16 -26 16 -90 -48 l-64 -63 -63 62 c-34 34 -66 62 -71 62 -4 0 -21 -14
-38 -31z m109 -41 l63 -62 63 62 c67 67 84 71 108 26 12 -24 10 -28 -79 -117
l-92 -92 -90 90 c-49 49 -90 94 -90 100 0 13 37 55 48 55 3 0 35 -28 69 -62z"/>
<path d="M147 382 c-10 -10 -16 -23 -16 -28 1 -5 39 -45 85 -88 l84 -80 84 80
c46 43 84 84 85 90 0 6 -7 18 -18 28 -17 16 -21 13 -85 -51 l-66 -68 -66 68
c-36 37 -67 67 -69 67 -1 0 -9 -8 -18 -18z"/>
</g>
</svg>
