<svg id="edit" xmlns="http://www.w3.org/2000/svg" width="17.112" height="18.375" viewBox="0 0 17.112 18.375">
  <path id="Path_1826" data-name="Path 1826" d="M1615.187,647.961h-5.3a2.918,2.918,0,0,1-.8-.094,1.639,1.639,0,0,1-1.214-1.442,3.852,3.852,0,0,1-.021-.406q0-4.9,0-9.8a2.453,2.453,0,0,1,.084-.714,1.61,1.61,0,0,1,1.214-1.151,2.773,2.773,0,0,1,.715-.078h4.881c.219,0,.437,0,.656,0a.51.51,0,0,1,.5.321.54.54,0,0,1-.1.586.906.906,0,0,1-.786.352c-1.714-.013-3.429-.006-5.143-.006a1.846,1.846,0,0,0-.378.031.4.4,0,0,0-.37.381,1.2,1.2,0,0,0-.018.222q0,4.954,0,9.906a1.135,1.135,0,0,0,.045.336.342.342,0,0,0,.216.23,1.36,1.36,0,0,0,.4.072c.039,0,.079,0,.118,0h10.628a1.873,1.873,0,0,0,.416-.045.393.393,0,0,0,.329-.359,1.732,1.732,0,0,0,.02-.248q0-3.733,0-7.466a.629.629,0,0,1,.239-.515,2.208,2.208,0,0,1,.189-.142.528.528,0,0,1,.817.4c.006.083.009.166.009.249q0,3.713,0,7.426a2.592,2.592,0,0,1-.049.587,1.623,1.623,0,0,1-1.282,1.29,2.941,2.941,0,0,1-.716.068Z" transform="translate(-1607.846 -629.586)" fill="#c7d8dd" fill-rule="evenodd"/>
  <path id="Path_1827" data-name="Path 1827" d="M1649.507,623.621a.988.988,0,0,1,.144-.5,4.127,4.127,0,0,1,.5-.692q1.122-1.31,2.246-2.618,1.67-1.945,3.339-3.892a.37.37,0,0,1,.5-.1,1.938,1.938,0,0,1,.34.222,15.684,15.684,0,0,1,1.922,1.682.827.827,0,0,1,.149.2.341.341,0,0,1-.044.412c-.262.3-.519.6-.778.905q-2.38,2.771-4.761,5.542a5.23,5.23,0,0,1-.626.634,1.237,1.237,0,0,1-.367.225.581.581,0,0,1-.613-.1l-1.732-1.486A.553.553,0,0,1,1649.507,623.621Z" transform="translate(-1643.138 -613.905)" fill="#c7d8dd" fill-rule="evenodd"/>
  <path id="Path_1828" data-name="Path 1828" d="M1699.115,605.779a.762.762,0,0,1-.152.466c-.177.263-.4.488-.595.731a.522.522,0,0,1-.094.09.318.318,0,0,1-.47-.018c-.226-.205-.448-.416-.668-.629a12.737,12.737,0,0,0-1.155-.967c-.146-.111-.289-.226-.433-.34a.323.323,0,0,1-.062-.515,5,5,0,0,1,.623-.707.374.374,0,0,0,.04-.034.791.791,0,0,1,.7-.253,1.7,1.7,0,0,1,.426.069,2.577,2.577,0,0,1,1.111.617,2.611,2.611,0,0,1,.683,1.132A1.189,1.189,0,0,1,1699.115,605.779Z" transform="translate(-1682.003 -603.602)" fill="#c7d8dd" fill-rule="evenodd"/>
  <path id="Path_1829" data-name="Path 1829" d="M1647.4,677.429c-.092,0-.183,0-.275,0a.3.3,0,0,1-.291-.236,5.463,5.463,0,0,1-.086-.622.7.7,0,0,1,.086-.376.273.273,0,0,1,.321-.14.6.6,0,0,1,.208.107,6.231,6.231,0,0,1,.675.58.764.764,0,0,1,.124.152.286.286,0,0,1-.1.4.715.715,0,0,1-.417.129h-.249Z" transform="translate(-1640.798 -664.97)" fill="#c7d8dd" fill-rule="evenodd"/>
</svg>
