<svg id="Layer_3" data-name="Layer 3" xmlns="http://www.w3.org/2000/svg" viewBox="0 0 792 792"><defs><style>.cls-1{fill:#fff;}</style></defs><title>sound</title><path class="cls-1" d="M517.17,396V376.23s.89-13.66-6.64-20.42c-2.17-2.43-8.81-2.3-10.59-6.13s-23.62-117.32-27.07-130.85a26.29,26.29,0,0,0-15.44-17.74s-9.83-1.66-14.81,0C420.28,209.64,340,260.45,336.4,262.36a28.21,28.21,0,0,1-10.72,3.07H241.94c-4.34,0-22,3.57-32.68,14.29s-24.64,32.56-29.62,43.92c-10.34,22.47-12.77,56.51-12.77,72.36"/><path class="cls-1" d="M517.17,396v18.28s.89,12.63-6.64,18.88c-2.17,2.25-8.81,2.13-10.59,5.67s-23.62,108.48-27.07,121-15.44,16.41-15.44,16.41-9.83,1.54-14.81,0C420.28,568.32,340,521.34,336.4,519.57a30.07,30.07,0,0,0-10.72-2.83H241.94c-4.34,0-22-3.31-32.68-13.22s-24.64-30.1-29.62-40.61c-10.34-20.77-12.77-52.25-12.77-66.91"/><g id="Layer_4" data-name="Layer 4"><path class="cls-1" d="M511,291s34.22,39,34.22,105S511,499,511,499s17.11-24,17.11-103S511,291,511,291Z"/><path class="cls-1" d="M550.13,269.36S591.38,316.41,591.38,396s-41.25,124.23-41.25,124.23,20.62-29,20.62-124.23S550.13,269.36,550.13,269.36Z"/><path class="cls-1" d="M597,244.27s49.5,56.45,49.5,152S597,545.33,597,545.33s24.75-34.79,24.75-149.09S597,244.27,597,244.27Z"/></g></svg>