<svg id="Layer_3" data-name="Layer 3" xmlns="http://www.w3.org/2000/svg" viewBox="0 0 792 792"><defs><style>.cls-1{fill:#fff;}</style></defs><title>mute</title><path class="cls-1" d="M471.22,564.12a25.91,25.91,0,0,1-13.79,12.11s-9.83,1.54-14.81,0C420.28,568.32,340,521.34,336.4,519.57a30.07,30.07,0,0,0-10.72-2.83H241.94c-4.34,0-22-3.31-32.68-13.22s-24.64-30.1-29.62-40.61c-10.34-20.77-12.77-52.25-12.77-66.91,0-15.85,2.43-49.89,12.77-72.36,3.94-9,13.47-24.54,22.6-35.95"/><path class="cls-1" d="M220.73,271.65c9-4.53,18.23-6.22,21.21-6.22h83.74a28.21,28.21,0,0,0,10.72-3.07c3.58-1.91,83.88-52.72,106.22-61.27,5-1.66,14.81,0,14.81,0a26.29,26.29,0,0,1,15.44,17.74c3.45,13.53,25.28,127,27.07,130.85s8.42,3.7,10.59,6.13c7.53,6.76,6.64,20.42,6.64,20.42v38s.89,12.63-6.64,18.88c-2.17,2.25-8.81,2.13-10.59,5.67-1.25,2.48-12.32,54.61-20,90"/><g id="Layer_4" data-name="Layer 4"><path class="cls-1" d="M511,291s34.22,39,34.22,105S511,499,511,499s17.11-24,17.11-103S511,291,511,291Z"/><path class="cls-1" d="M537.36,269.36S578.61,316.41,578.61,396s-41.25,124.23-41.25,124.23S558,491.25,558,396,537.36,269.36,537.36,269.36Z"/></g><path class="cls-1" d="M565.68,613.55c-3.13-3.12-417.51-413.42-420.25-416.17s-11.24-22.47,0-33.7,30.7,1.6,33.19,4.09,412.13,408,415.15,411.06,15.56,22.39,3.22,34.72S568.81,616.68,565.68,613.55Z"/></svg>