<svg xmlns="http://www.w3.org/2000/svg" viewBox="0 0 734.86 734.86"><defs><style>.cls-1{fill:#df2d6c;}.cls-2{fill:#fff;}</style></defs><title>select</title><g id="Layer_2" data-name="Layer 2"><circle class="cls-1" cx="367.43" cy="367.43" r="367.43"/></g><g id="Layer_4" data-name="Layer 4"><path class="cls-2" d="M638,347.51c0,1,0,2.06,0,3.08v.13q0,1.47-.12,2.94c0,.89-.1,1.78-.17,2.66,0,.29,0,.58-.06.86-.06.84-.14,1.68-.23,2.52a0,0,0,0,1,0,.05C624,494.49,399,660.15,399,660.15S167,491.58,160.16,353.64c0-1-.09-2-.12-3.05s0-2,0-3.08a119.49,119.49,0,0,1,239,0,119.49,119.49,0,0,1,239,0Z" transform="translate(-31.55 -27.41)"/></g></svg>