<svg xmlns="http://www.w3.org/2000/svg" width="21.05" height="21.05" viewBox="0 0 21.05 21.05">
  <g id="Group_477" data-name="Group 477" transform="translate(-91.95 -175.4)">
    <g id="Ellipse_43" data-name="Ellipse 43" transform="translate(91.95 175.4)" fill="#fff" stroke="#c6d7dd" stroke-width="1">
      <ellipse cx="10.525" cy="10.525" rx="10.525" ry="10.525" stroke="none"/>
      <ellipse cx="10.525" cy="10.525" rx="10.025" ry="10.025" fill="none"/>
    </g>
    <g id="Group_343" data-name="Group 343" transform="translate(95.206 180.136)">
      <g id="Path_1779" data-name="Path 1779" transform="translate(0 0)" fill="#fff">
        <path d="M 10.79541206359863 11.34874057769775 L 3.159631967544556 11.34874057769775 C 1.693111896514893 11.34874057769775 0.5000019073486328 10.15562057495117 0.5000019073486328 8.689081192016602 L 0.5000019073486328 3.159660816192627 C 0.5000019073486328 1.693120718002319 1.693111896514893 0.5000007748603821 3.159631967544556 0.5000007748603821 L 10.79541206359863 0.5000007748603821 C 12.26193237304688 0.5000007748603821 13.45504188537598 1.693120718002319 13.45504188537598 3.159660816192627 L 13.45504188537598 8.689081192016602 C 13.45504188537598 10.15562057495117 12.26193237304688 11.34874057769775 10.79541206359863 11.34874057769775 Z" stroke="none"/>
        <path d="M 3.159631729125977 1.000000953674316 C 1.968811988830566 1.000000953674316 1.000001907348633 1.968820571899414 1.000001907348633 3.159660339355469 L 1.000001907348633 8.689081192016602 C 1.000001907348633 9.879920959472656 1.968811988830566 10.84874057769775 3.159631729125977 10.84874057769775 L 10.79541206359863 10.84874057769775 C 11.98623180389404 10.84874057769775 12.95504188537598 9.879920959472656 12.95504188537598 8.689081192016602 L 12.95504188537598 3.159660339355469 C 12.95504188537598 1.968820571899414 11.98623180389404 1.000000953674316 10.79541206359863 1.000000953674316 L 3.159631729125977 1.000000953674316 M 3.159631729125977 9.5367431640625e-07 L 10.79541206359863 9.5367431640625e-07 C 12.54042148590088 9.5367431640625e-07 13.95504188537598 1.414630889892578 13.95504188537598 3.159660339355469 L 13.95504188537598 8.689081192016602 C 13.95504188537598 10.43411064147949 12.54042148590088 11.84874057769775 10.79541206359863 11.84874057769775 L 3.159631729125977 11.84874057769775 C 1.41461181640625 11.84874057769775 1.9073486328125e-06 10.43411064147949 1.9073486328125e-06 8.689081192016602 L 1.9073486328125e-06 3.159660339355469 C 1.9073486328125e-06 1.414630889892578 1.41461181640625 9.5367431640625e-07 3.159631729125977 9.5367431640625e-07 Z" stroke="none" fill="#8fb3c1"/>
      </g>
      <g id="Path_1778" data-name="Path 1778" transform="translate(4.476 3.423)" fill="#fff">
        <path d="M 2.501375675201416 4.502800941467285 C 1.397815704345703 4.502800941467285 0.4999956786632538 3.604980945587158 0.4999956786632538 2.501400947570801 C 0.4999956786632538 1.397820949554443 1.397815704345703 0.5000009536743164 2.501375675201416 0.5000009536743164 C 3.604935646057129 0.5000009536743164 4.502755641937256 1.397820949554443 4.502755641937256 2.501400947570801 C 4.502755641937256 3.604980945587158 3.604935646057129 4.502800941467285 2.501375675201416 4.502800941467285 Z" stroke="none"/>
        <path d="M 2.501375675201416 1.000000953674316 C 1.673515558242798 1.000000953674316 0.9999957084655762 1.673531055450439 0.9999957084655762 2.501400947570801 C 0.9999957084655762 3.329270839691162 1.673515558242798 4.002800941467285 2.501375675201416 4.002800941467285 C 3.329235553741455 4.002800941467285 4.002755641937256 3.329270839691162 4.002755641937256 2.501400947570801 C 4.002755641937256 1.673531055450439 3.329235553741455 1.000000953674316 2.501375675201416 1.000000953674316 M 2.501375675201416 9.5367431640625e-07 C 3.882845640182495 9.5367431640625e-07 5.002755641937256 1.119910955429077 5.002755641937256 2.501400947570801 C 5.002755641937256 3.882890939712524 3.882845640182495 5.002800941467285 2.501375675201416 5.002800941467285 C 1.119905710220337 5.002800941467285 -4.291534423828125e-06 3.882890939712524 -4.291534423828125e-06 2.501400947570801 C -4.291534423828125e-06 1.119910955429077 1.119905710220337 9.5367431640625e-07 2.501375675201416 9.5367431640625e-07 Z" stroke="none" fill="#8fb3c1"/>
      </g>
      <g id="Path_1777" data-name="Path 1777" transform="translate(2.106 1.58)" fill="#8fb3c1">
        <path d="M 1.316509366035461 0.5532206296920776 L 0.5266094207763672 0.5532206296920776 C 0.5119394063949585 0.5532206296920776 0.4999994039535522 0.5412806272506714 0.4999994039535522 0.5266106128692627 C 0.4999994039535522 0.511940598487854 0.5119394063949585 0.5000005960464478 0.5266094207763672 0.5000005960464478 L 1.316509366035461 0.5000005960464478 C 1.33117938041687 0.5000005960464478 1.343119382858276 0.511940598487854 1.343119382858276 0.5266106128692627 C 1.343119382858276 0.5412806272506714 1.33117938041687 0.5532206296920776 1.316509366035461 0.5532206296920776 Z" stroke="none"/>
        <path d="M 0.5266094207763672 5.960464477539062e-07 L 1.316509366035461 5.960464477539062e-07 C 1.607349395751953 5.960464477539062e-07 1.843119382858276 0.235770583152771 1.843119382858276 0.5266106128692627 C 1.843119382858276 0.8174506425857544 1.607349395751953 1.053220629692078 1.316509366035461 1.053220629692078 L 0.5266094207763672 1.053220629692078 C 0.2357693910598755 1.053220629692078 -5.960464477539062e-07 0.8174506425857544 -5.960464477539062e-07 0.5266106128692627 C -5.960464477539062e-07 0.235770583152771 0.2357693910598755 5.960464477539062e-07 0.5266094207763672 5.960464477539062e-07 Z" stroke="none" fill="#8fb3c1"/>
      </g>
    </g>
  </g>
</svg>
