<svg id="Group_333" data-name="Group 333" xmlns="http://www.w3.org/2000/svg" width="21.084" height="21.109" viewBox="0 0 21.084 21.109">
  <path id="Path_1687" data-name="Path 1687" d="M690.024,308.132v-2.073c-.726-.045-1.368-.089-2.139-.137v-4.156c-.792,0-1.448,0-2.1,0,0,0,.048.033.048.033v-2.075h8.324v6.221H692.15c0,.771,0,1.456,0,2.143,0,0,.032-.046.032-.046-.732.019-1.465.038-2.2.048Zm2.045-6.307h-1.976v1.98h1.976Z" transform="translate(-673.077 -299.693)" fill="#bcd1d5" fill-rule="evenodd"/>
  <path id="Path_1688" data-name="Path 1688" d="M638.874,305.809v-6.193h6.19v6.193ZM643,303.743v-2.006h-1.98v2.006Z" transform="translate(-638.874 -299.616)" fill="#bcd1d5" fill-rule="evenodd"/>
  <path id="Path_1689" data-name="Path 1689" d="M645.171,354.029v6.336h-6.206v-6.3c2.05,0,4.151,0,6.245,0Zm-4.131,4.217h2.024v-1.953h-2.024Z" transform="translate(-638.94 -339.29)" fill="#bcd1d5" fill-rule="evenodd"/>
  <path id="Path_1690" data-name="Path 1690" d="M668.255,333.013v2.125h-1.972c-.053.77-.1,1.412-.144,2.13-1.451,0-2.85,0-4.25,0,0,0,.038.04.036.038.023-.711.039-1.415.055-2.122l-.036.041H664v-2.165h-2.057l.036.029v-2.052h4.178v2.016c.772,0,1.456,0,2.142,0C668.3,333.056,668.255,333.013,668.255,333.013Z" transform="translate(-655.654 -322.525)" fill="#bcd1d5" fill-rule="evenodd"/>
  <path id="Path_1691" data-name="Path 1691" d="M697.927,354.247h2.045v6.279H693.76v-1.995h4.208v-4.317Z" transform="translate(-678.893 -339.426)" fill="#bcd1d5" fill-rule="evenodd"/>
  <path id="Path_1692" data-name="Path 1692" d="M692.027,348.483h-2.088c-.043.7-.079,1.33-.118,2.116h-4.208l.04.033v-2.064c.677-.038,1.31-.079,2.032-.114.045-.669.083-1.3.137-2.055h4.193l-.042-.045c0,.724.007,1.448.014,2.162Z" transform="translate(-672.952 -333.693)" fill="#bcd1d5" fill-rule="evenodd"/>
  <path id="Path_1693" data-name="Path 1693" d="M672.281,307.158c.735.008,1.477.023,2.215.03,0,0-.049-.034-.046-.033,0,1.358,0,2.711,0,4.147H670.24V309.31h2.084v-2.195Z" transform="translate(-661.744 -305.084)" fill="#bcd1d5" fill-rule="evenodd"/>
  <path id="Path_1694" data-name="Path 1694" d="M643.174,332.977c-.689.042-1.381.085-2.154.137v1.96h-2.066V331h4.186c0,.714,0,1.362,0,2.019C643.139,333.021,643.174,332.977,643.174,332.977Z" transform="translate(-638.932 -322.498)" fill="#bcd1d5" fill-rule="evenodd"/>
  <path id="Path_1695" data-name="Path 1695" d="M674.483,362.026v2.08c-.688.039-1.323.072-2.048.119-.037.672-.083,1.31-.125,2.006h-1.961v-4.169h4.174S674.483,362.026,674.483,362.026Z" transform="translate(-661.823 -345.121)" fill="#bcd1d5" fill-rule="evenodd"/>
  <path id="Path_1696" data-name="Path 1696" d="M689.7,330.609v2.1c-1.455,0-2.879,0-4.3,0,0,0,.042.04.042.038v-2.089h4.3Z" transform="translate(-672.797 -322.214)" fill="#bcd1d5" fill-rule="evenodd"/>
  <path id="Path_1697" data-name="Path 1697" d="M709.134,334.8c.014-1.454.027-2.9.041-4.354a.263.263,0,0,0-.032.043h2.014v4.267h-2.064Z" transform="translate(-690.072 -322.093)" fill="#bcd1d5" fill-rule="evenodd"/>
  <path id="Path_1698" data-name="Path 1698" d="M672.407,301.682h-2.053v-2.018h2.009v2.061S672.407,301.682,672.407,301.682Z" transform="translate(-661.827 -299.651)" fill="#bcd1d5" fill-rule="evenodd"/>
  <path id="Path_1699" data-name="Path 1699" d="M656.525,340.479h-2.088c0-.745,0-1.464,0-2.179a.325.325,0,0,1-.032.042c.707.015,1.411.033,2.118.043l-.036-.029v2.165Z" transform="translate(-650.2 -327.822)" fill="#bcd1d5" fill-rule="evenodd"/>
</svg>
