<svg xmlns="http://www.w3.org/2000/svg" width="28.259" height="32.897" viewBox="0 0 28.259 32.897">
  <g id="Group_7" data-name="Group 7" transform="translate(-35.942 -60.79)">
    <line id="Line_5" data-name="Line 5" x2="26.62" transform="translate(36.302 62.144)" fill="none" stroke="#fff" stroke-miterlimit="10" stroke-width="0.454"/>
    <line id="Line_6" data-name="Line 6" y2="31.754" transform="translate(62.922 61.933)" fill="none" stroke="#fff" stroke-miterlimit="10" stroke-width="0.451"/>
    <line id="Line_7" data-name="Line 7" y2="32.667" transform="translate(63.962 61.02)" fill="none" stroke="#fff" stroke-miterlimit="10" stroke-width="0.45"/>
    <line id="Line_8" data-name="Line 8" x2="27.195" transform="translate(37.006 61.02)" fill="none" stroke="#fff" stroke-miterlimit="10" stroke-width="0.459"/>
    <path id="Path_62" data-name="Path 62" d="M35.942,63.082v1.713H37.08v1.324H35.942v2.274H37.08v1.323H35.942V71.99H37.08v1.323H35.942v2.274H37.08v1.322H35.942v2.274H37.08v1.323H35.942v2.275H37.08v1.324H35.942v2.273H37.08V87.7H35.942v2.274H37.08V91.3H35.942v2.389H62.027v-30.6Zm16.958,6.6a3.033,3.033,0,1,1-3.034,3.033A3.035,3.035,0,0,1,52.9,69.686Zm-7,1.929a3.032,3.032,0,1,1-3.033,3.033A3.036,3.036,0,0,1,45.9,71.615ZM52,85.92H39.8c.515-4.427,2.961-7.784,5.908-7.784h.384a4.2,4.2,0,0,1,2.405.8,5.18,5.18,0,0,1,4.21-2.731h.384c2.947,0,5.392,3.356,5.908,7.783H51.632A13.679,13.679,0,0,1,52,85.92Z" fill="#fff"/>
  </g>
</svg>
