<svg xmlns="http://www.w3.org/2000/svg" width="28.685" height="28.685" viewBox="0 0 28.685 28.685">
  <path id="Path_1374" data-name="Path 1374" d="M165.036,63.834V58.559h-3.448a10.638,10.638,0,0,0-1.182-2.845l2.44-2.441-3.729-3.729-2.44,2.44a10.569,10.569,0,0,0-2.848-1.181V47.354h-5.272V50.8a10.6,10.6,0,0,0-2.847,1.181l-2.44-2.44-3.729,3.729,2.44,2.441a10.717,10.717,0,0,0-1.182,2.845h-3.448v5.275H140.8a10.706,10.706,0,0,0,1.182,2.845l-2.44,2.441,3.729,3.729,2.44-2.44a10.546,10.546,0,0,0,2.847,1.18v3.45h5.272v-3.45a10.541,10.541,0,0,0,2.848-1.18l2.44,2.44,3.729-3.729-2.44-2.441a10.68,10.68,0,0,0,1.182-2.845Zm-13.842,3.555a6.193,6.193,0,1,1,6.193-6.193A6.193,6.193,0,0,1,151.194,67.389Z" transform="translate(-136.851 -46.854)" fill="#bcd1d5" stroke="rgba(0,0,0,0)" stroke-width="1" fill-rule="evenodd"/>
</svg>
