<svg xmlns="http://www.w3.org/2000/svg" width="24.131" height="23.593" viewBox="0 0 24.131 23.593">
  <g id="Group_106" data-name="Group 106" transform="translate(0.5 0.5)">
    <g id="Group_103" data-name="Group 103" transform="translate(16.058 14.098)">
      <path id="Path_417" data-name="Path 417" d="M559.187,2142.023a1.838,1.838,0,1,1-1.838-1.838A1.839,1.839,0,0,1,559.187,2142.023Z" transform="translate(-555.51 -2140.185)" fill="#b5ccd1" stroke="#b5cdd1" stroke-width="1"/>
      <path id="Path_418" data-name="Path 418" d="M573.378,2142.023a1.838,1.838,0,1,1-1.839-1.838A1.841,1.841,0,0,1,573.378,2142.023Z" transform="translate(-566.305 -2140.185)" fill="#b5ccd1" stroke="#b5cdd1" stroke-width="1"/>
      <path id="Path_419" data-name="Path 419" d="M555.607,2149.112a3.733,3.733,0,0,0,1.235,2.29,14.078,14.078,0,0,0,2.256,1.747,14.039,14.039,0,0,0,2.138-1.585,4.239,4.239,0,0,0,1.395-2.451" transform="translate(-555.584 -2146.976)" fill="#b5ccd1" stroke="#b5cdd1" stroke-width="1"/>
    </g>
    <g id="Group_104" data-name="Group 104" transform="translate(0 14.098)">
      <path id="Path_420" data-name="Path 420" d="M492.073,2142.023a1.838,1.838,0,1,1-1.838-1.838A1.839,1.839,0,0,1,492.073,2142.023Z" transform="translate(-488.396 -2140.185)" fill="#b5ccd1" stroke="#b5cdd1" stroke-width="1"/>
      <path id="Path_421" data-name="Path 421" d="M506.265,2142.023a1.838,1.838,0,1,1-1.839-1.838A1.841,1.841,0,0,1,506.265,2142.023Z" transform="translate(-499.192 -2140.185)" fill="#b5ccd1" stroke="#b5cdd1" stroke-width="1"/>
      <path id="Path_422" data-name="Path 422" d="M488.5,2149.112a3.725,3.725,0,0,0,1.235,2.29,14.05,14.05,0,0,0,2.255,1.747,14.089,14.089,0,0,0,2.138-1.585,4.241,4.241,0,0,0,1.395-2.451" transform="translate(-488.473 -2146.976)" fill="#b5ccd1" stroke="#b5cdd1" stroke-width="1"/>
    </g>
    <g id="Group_105" data-name="Group 105" transform="translate(8.243)">
      <path id="Path_423" data-name="Path 423" d="M526.525,2083.1a1.838,1.838,0,1,1-1.838-1.838A1.837,1.837,0,0,1,526.525,2083.1Z" transform="translate(-522.848 -2081.263)" fill="#b5ccd1" stroke="#b5cdd1" stroke-width="1"/>
      <path id="Path_424" data-name="Path 424" d="M540.716,2083.1a1.838,1.838,0,1,1-1.839-1.838A1.839,1.839,0,0,1,540.716,2083.1Z" transform="translate(-533.644 -2081.263)" fill="#b5ccd1" stroke="#b5cdd1" stroke-width="1"/>
      <path id="Path_425" data-name="Path 425" d="M522.945,2090.184a3.731,3.731,0,0,0,1.235,2.29,14.034,14.034,0,0,0,2.256,1.746,14,14,0,0,0,2.138-1.583,4.243,4.243,0,0,0,1.4-2.453" transform="translate(-522.922 -2088.05)" fill="#b5ccd1" stroke="#b5cdd1" stroke-width="1"/>
    </g>
    <path id="Path_426" data-name="Path 426" d="M502.979,2096.629a8.89,8.89,0,0,0-4.322,3.284c-2.034,2.446-1.859,6.349-1.859,6.349" transform="translate(-494.785 -2092.952)" fill="none" stroke="#b5cdd1" stroke-miterlimit="10" stroke-width="2"/>
    <path id="Path_427" data-name="Path 427" d="M557.122,2106.733a8.882,8.882,0,0,0-.986-5.339c-1.267-2.917-4.828-4.52-4.828-4.52" transform="translate(-536.256 -2093.139)" fill="none" stroke="#b5cdd1" stroke-miterlimit="10" stroke-width="2"/>
    <path id="Path_428" data-name="Path 428" d="M510.269,2163.681a10.623,10.623,0,0,0,5.786,2.333c3.26.332,6.552-2.192,6.552-2.192" transform="translate(-505.036 -2143.961)" fill="none" stroke="#b5cdd1" stroke-miterlimit="10" stroke-width="2"/>
  </g>
</svg>
