<svg xmlns="http://www.w3.org/2000/svg" width="42.547" height="42.157" viewBox="0 0 42.547 42.157">
  <g id="Group_111" data-name="Group 111" transform="translate(0)">
    <path id="Path_448" data-name="Path 448" d="M202.681,779.237v-2.732H205.8c2.722,2.6,5.455,5.2,8.162,7.815a6.08,6.08,0,0,0,7.666.465,65.08,65.08,0,0,1,8.055-4.69c2.376-1.115,3.553-.5,4.176,2.052.951,3.892,1.6,7.856,2.406,11.9,1.282.155,1.934,1.336,1.652,4.3-.128,1.353.437,3.375-2.172,3.4.351,1.738-1.1,3.865,1.335,5.249,2.555-6.392,2.162-12.681.078-19.049a4.969,4.969,0,0,1,1.386,1.678,17.392,17.392,0,0,1-.253,16.982c-.522.961-.734,1.6.587,2.09,1.745-3.671,2.923-7.517,2.483-11.494-.424-3.837-1.594-7.592-2.429-11.35,2.016,1.69,2.792,4.288,3.55,6.853,1.8,6.083.326,11.642-2.9,16.879l5.645,5.953v3.123H242.5c-.8-.651-1.663-1.24-2.394-1.961q-13.238-13.078-26.435-26.2C209.954,786.8,206.34,783,202.681,779.237Z" transform="translate(-202.681 -776.505)" fill="#fff" fill-rule="evenodd"/>
    <path id="Path_449" data-name="Path 449" d="M210.364,805.48c6.567,6.755,12.707,13.088,18.87,19.4,2,2.043,4.07,4.01,6.06,6.058.345.355.758,1.139.6,1.382-.338.53-1.047,1.2-1.56,1.164a8.958,8.958,0,0,1-3.517-.9c-2.171-1.149-4.177-2.607-6.327-3.8a14.019,14.019,0,0,0-3.517-1.318c-2.956-.707-5.956-1.232-8.911-1.94a5.534,5.534,0,0,1-4.041-3.863,18.264,18.264,0,0,1,.053-12.4A25.884,25.884,0,0,1,210.364,805.48Z" transform="translate(-205.293 -794.168)" fill="#fff" fill-rule="evenodd"/>
  </g>
</svg>
