<svg xmlns="http://www.w3.org/2000/svg" width="16.114" height="16.523" viewBox="0 0 16.114 16.523">
  <path id="share" d="M2038.028,630.27a.314.314,0,0,0,.1.06l5.086,2.455c.1.05.084.06.165-.031a2.927,2.927,0,0,1,5.127,2.054,2.927,2.927,0,1,1-5.723-.982c0-.014.008-.027.012-.041.024-.083.025-.084-.057-.124l-5.172-2.5c-.107-.052-.086-.046-.16.028a2.843,2.843,0,0,1-1.607.832,2.928,2.928,0,0,1-1.942-5.423,2.855,2.855,0,0,1,1.77-.378,2.885,2.885,0,0,1,1.88.96c.081.089.081.089.189.033l4.5-2.346a.24.24,0,0,1,.028-.015c.051-.019.067-.047.05-.105a2.591,2.591,0,0,1-.1-.79,2.928,2.928,0,0,1,2.646-2.861,2.927,2.927,0,0,1,2.162,5.156,2.841,2.841,0,0,1-2.072.677,2.871,2.871,0,0,1-2.13-1.136c-.068-.086-.048-.086-.151-.032l-4.461,2.326a.369.369,0,0,1-.038.02c-.047.016-.055.045-.038.091a2.424,2.424,0,0,1,.1.369,2.926,2.926,0,0,1-.146,1.631Zm-2.692.98a2.164,2.164,0,1,0-2.162-2.158A2.159,2.159,0,0,0,2035.335,631.25Z" transform="translate(-2032.398 -621.085)" fill="#c7d8dd" fill-rule="evenodd"/>
</svg>
