<svg xmlns="http://www.w3.org/2000/svg" width="26.212" height="22.876" viewBox="0 0 26.212 22.876">
  <g id="Group_460" data-name="Group 460" transform="translate(-88.341 -798.503)">
    <path id="Path_320" data-name="Path 320" d="M1288.858,280.317a6.813,6.813,0,1,1-6.814-6.814A6.815,6.815,0,0,1,1288.858,280.317Z" transform="translate(-1186.89 525)" fill="#bcd1d5"/>
    <path id="Path_321" data-name="Path 321" d="M1335.431,280.317a6.815,6.815,0,1,1-6.814-6.814A6.816,6.816,0,0,1,1335.431,280.317Z" transform="translate(-1220.877 525)" fill="#bcd1d5"/>
    <path id="Path_322" data-name="Path 322" d="M1275.559,302.806s-.089,3.44,4.573,8.486c2.191,2.552,8.362,6.473,8.362,6.473s5.771-3.538,7.922-5.87c4.884-4.8,5.174-9.089,5.174-9.089" transform="translate(-1187.129 503.614)" fill="#bcd1d5"/>
    <path id="Path_323" data-name="Path 323" d="M1292.553,307.224a1.955,1.955,0,1,1-1.952-1.956A1.952,1.952,0,0,1,1292.553,307.224Z" transform="translate(-1196.679 501.817)" fill="#fff"/>
    <path id="Path_324" data-name="Path 324" d="M1320.408,307.224a1.955,1.955,0,1,1-1.954-1.956A1.952,1.952,0,0,1,1320.408,307.224Z" transform="translate(-1217.008 501.817)" fill="#fff"/>
    <path id="Path_325" data-name="Path 325" d="M1348.266,307.224a1.956,1.956,0,1,1-1.955-1.956A1.953,1.953,0,0,1,1348.266,307.224Z" transform="translate(-1237.338 501.817)" fill="#fff"/>
    <path id="Path_326" data-name="Path 326" d="M1295.037,345.967a23.228,23.228,0,0,1-2.586,2.009,14.631,14.631,0,0,1-3.486,1.288s6.6-.563,7.961-1.648" transform="translate(-1196.913 472.114)" fill="#bcd1d5"/>
  </g>
</svg>
