<svg xmlns="http://www.w3.org/2000/svg" width="31.475" height="31.462" viewBox="0 0 31.475 31.462">
  <g id="Group_8" data-name="Group 8" transform="translate(-111.872 -61.197)">
    <path id="Path_63" data-name="Path 63" d="M137.108,73.793V70.727l-3.175-.2v-6.16c-1.173,0-2.143,0-3.111,0l.062.057V61.337h12.348v9.215h-2.975c0,1.146,0,2.159,0,3.175l.056-.066q-1.629.037-3.263.072Zm3.031-9.341h-2.926v2.935h2.926Z" fill="#fff" stroke="#cc2162" stroke-miterlimit="10" stroke-width="0.196" fill-rule="evenodd"/>
    <path id="Path_64" data-name="Path 64" d="M111.97,70.474V61.295h9.189v9.179Zm6.118-3.07V64.433h-2.936V67.4Z" fill="#fff" stroke="#cc2162" stroke-miterlimit="10" stroke-width="0.196" fill-rule="evenodd"/>
    <path id="Path_65" data-name="Path 65" d="M121.215,83.129V92.5h-9.206V83.184c3.043,0,6.156,0,9.269,0Zm-6.127,6.241h2.993V86.479h-2.993Z" fill="#fff" stroke="#cc2162" stroke-miterlimit="10" stroke-width="0.196" fill-rule="evenodd"/>
    <path id="Path_66" data-name="Path 66" d="M130.664,76.833v3.141h-2.93c-.074,1.144-.139,2.09-.21,3.158h-6.306l.06.055q.041-1.575.083-3.143l-.063.055h3.052V76.893H121.3l.063.056V73.9h6.192v2.982c1.146,0,2.158,0,3.174,0Z" fill="#fff" stroke="#cc2162" stroke-miterlimit="10" stroke-width="0.196" fill-rule="evenodd"/>
    <path id="Path_67" data-name="Path 67" d="M140.2,83.254h3.04v9.291h-9.217V89.589h6.238V83.2Z" fill="#fff" stroke="#cc2162" stroke-miterlimit="10" stroke-width="0.196" fill-rule="evenodd"/>
    <path id="Path_68" data-name="Path 68" d="M140.261,83.2h-3.1c-.06,1.039-.113,1.982-.177,3.133H130.75l.06.058V83.321c1-.055,1.942-.106,3.016-.167.064-.984.125-1.924.2-3.045h6.22l-.059-.059q.006,1.6.014,3.2Z" fill="#fff" stroke="#cc2162" stroke-miterlimit="10" stroke-width="0.196" fill-rule="evenodd"/>
    <path id="Path_69" data-name="Path 69" d="M127.6,64.363l3.279.053-.061-.055c0,2.012,0,4.019,0,6.142h-6.25V67.558h3.091V64.3Z" fill="#fff" stroke="#cc2162" stroke-miterlimit="10" stroke-width="0.196" fill-rule="evenodd"/>
    <path id="Path_70" data-name="Path 70" d="M118.267,76.81c-1.025.064-2.048.131-3.2.2V79.92H112V73.884h6.208c0,1.062,0,2.024,0,2.99Z" fill="#fff" stroke="#cc2162" stroke-miterlimit="10" stroke-width="0.196" fill-rule="evenodd"/>
    <path id="Path_71" data-name="Path 71" d="M130.75,86.329v3.08c-1.02.06-1.965.114-3.032.175-.063,1-.126,1.946-.192,2.977h-2.9V86.388h6.188Z" fill="#fff" stroke="#cc2162" stroke-miterlimit="10" stroke-width="0.196" fill-rule="evenodd"/>
    <path id="Path_72" data-name="Path 72" d="M137.048,73.733v3.1c-2.161,0-4.271,0-6.382,0l.061.054c0-.964,0-1.927,0-3.1h6.384Z" fill="#fff" stroke="#cc2162" stroke-miterlimit="10" stroke-width="0.196" fill-rule="evenodd"/>
    <path id="Path_73" data-name="Path 73" d="M140.245,80.109q.032-3.221.065-6.445l-.055.063c.962,0,1.92,0,2.994,0V80.05h-3.063Z" fill="#fff" stroke="#cc2162" stroke-miterlimit="10" stroke-width="0.196" fill-rule="evenodd"/>
    <path id="Path_74" data-name="Path 74" d="M127.665,64.3h-3.041V61.313H127.6v3.05Z" fill="#fff" stroke="#cc2162" stroke-miterlimit="10" stroke-width="0.196" fill-rule="evenodd"/>
    <path id="Path_75" data-name="Path 75" d="M121.361,80.043h-3.1c0-1.108,0-2.168,0-3.231l-.054.062q1.58.036,3.15.075l-.063-.056V80.1Z" fill="#fff" stroke="#cc2162" stroke-miterlimit="10" stroke-width="0.196" fill-rule="evenodd"/>
  </g>
</svg>
