<svg xmlns="http://www.w3.org/2000/svg" width="55.586" height="11.928" viewBox="0 0 55.586 11.928">
  <g id="Group_107" data-name="Group 107" transform="translate(0 0)">
    <path id="Path_429" data-name="Path 429" d="M825.581,2120.389a3.554,3.554,0,1,1-3.554-3.554A3.552,3.552,0,0,1,825.581,2120.389Z" transform="translate(-818.474 -2116.835)" fill="#d52a6b"/>
    <path id="Path_430" data-name="Path 430" d="M842.386,2120.389a3.554,3.554,0,1,1-3.554-3.554A3.552,3.552,0,0,1,842.386,2120.389Z" transform="translate(-828.718 -2116.835)" fill="#d52a6b"/>
    <path id="Path_431" data-name="Path 431" d="M818.594,2127.41s-.047,1.794,2.385,4.425a27.233,27.233,0,0,0,4.359,3.375,26.842,26.842,0,0,0,4.13-3.061,8.191,8.191,0,0,0,2.7-4.739" transform="translate(-818.547 -2123.282)" fill="#d52a6b"/>
    <path id="Path_432" data-name="Path 432" d="M880.2,2120.389a3.554,3.554,0,1,1-3.554-3.554A3.552,3.552,0,0,1,880.2,2120.389Z" transform="translate(-851.77 -2116.835)" fill="#d52a6b"/>
    <path id="Path_433" data-name="Path 433" d="M897.006,2120.389a3.554,3.554,0,1,1-3.554-3.554A3.552,3.552,0,0,1,897.006,2120.389Z" transform="translate(-862.015 -2116.835)" fill="#d52a6b"/>
    <path id="Path_434" data-name="Path 434" d="M873.213,2127.41s-.047,1.794,2.385,4.425a27.269,27.269,0,0,0,4.359,3.375,26.8,26.8,0,0,0,4.13-3.061,8.185,8.185,0,0,0,2.7-4.739" transform="translate(-851.843 -2123.282)" fill="#d52a6b"/>
    <path id="Path_435" data-name="Path 435" d="M932.954,2120.389a3.554,3.554,0,1,1-3.554-3.554A3.552,3.552,0,0,1,932.954,2120.389Z" transform="translate(-883.93 -2116.835)" fill="#d52a6b"/>
    <path id="Path_436" data-name="Path 436" d="M949.759,2120.389a3.554,3.554,0,1,1-3.553-3.554A3.551,3.551,0,0,1,949.759,2120.389Z" transform="translate(-894.174 -2116.835)" fill="#d52a6b"/>
    <path id="Path_437" data-name="Path 437" d="M925.966,2127.41s-.046,1.794,2.386,4.425a27.267,27.267,0,0,0,4.359,3.375,26.821,26.821,0,0,0,4.13-3.061,8.187,8.187,0,0,0,2.7-4.739" transform="translate(-884.002 -2123.282)" fill="#d52a6b"/>
  </g>
</svg>
